<?xml version="1.0" encoding="utf-8"?>
<!-- Generator: Adobe Illustrator 21.1.0, SVG Export Plug-In . SVG Version: 6.00 Build 0)  -->
<svg version="1.1" id="Layer_1" xmlns="http://www.w3.org/2000/svg" xmlns:xlink="http://www.w3.org/1999/xlink" x="0px" y="0px"
	 viewBox="0 0 187 188" style="enable-background:new 0 0 187 188;" xml:space="preserve">
<style type="text/css">
	.st0{fill:#A5F5DE;}
	.st1{fill:#33EEF6;}
	.st2{fill:#DEB0A8;}
	.st3{fill:#FF8D8D;}
	.st4{fill:#12171F;}
</style>
<g>
	<rect x="0" y="94" class="st0" width="93.5" height="93.5"/>
	<rect x="93.5" y="94" class="st1" width="93.5" height="93.5"/>
	<rect x="93.5" y="0.5" class="st2" width="93.5" height="93.5"/>
	<rect x="0" y="0.5" class="st3" width="93.5" height="93.5"/>
	<g>
		<path class="st4" d="M141.3,109.3c-17.3,0-31.3,14-31.3,31.3c0,17.3,14,31.3,31.3,31.3s31.3-14,31.3-31.3
			C172.5,123.3,158.5,109.3,141.3,109.3z M141.3,158.8c-10.1,0-18.2-8.2-18.2-18.2c0-10.1,8.2-18.2,18.2-18.2
			c10.1,0,18.2,8.2,18.2,18.2C159.5,150.6,151.3,158.8,141.3,158.8z"/>
		<polygon class="st4" points="78.3,133.3 53.5,133.3 53.5,109.2 40.4,109.2 40.4,133.3 15.6,133.3 15.6,146.4 40.4,146.4 
			40.4,171.9 53.5,171.9 53.5,146.4 78.3,146.4 		"/>
		<path class="st4" d="M140.5,16.1c-17.3,0-31.3,14-31.3,31.3s14,31.3,31.3,31.3s31.3-14,31.3-31.3S157.8,16.1,140.5,16.1z
			 M140.5,65.6c-10.1,0-18.2-8.2-18.2-18.2c0-10.1,8.2-18.2,18.2-18.2s18.2,8.2,18.2,18.2C158.8,57.4,150.6,65.6,140.5,65.6z"/>
		<path class="st4" d="M47,16.1c-9,0-31.4-0.1-31.4-0.1s0.2,23.1,0.2,31.3c0,8.8-0.2,31.4-0.2,31.4s23-0.1,31.4-0.1
			c17.3,0,31.3-14,31.3-31.3S64.3,16.1,47,16.1z M47,65.6c-4.7,0-18.3-0.3-18.3-0.3s0.1-12.6,0.1-17.9c0-4.9,0.3-18.2,0.3-18.2
			s12.8,0,18,0c10.1,0,18.2,8.2,18.2,18.2C65.2,57.4,57.1,65.6,47,65.6z"/>
	</g>
</g>
</svg>
